<svg width="16" height="16" viewBox="0 0 16 16" fill="none" xmlns="http://www.w3.org/2000/svg">
<path d="M5.24996 15.2337C5.18962 15.2337 5.13032 15.2179 5.07796 15.1879C5.0256 15.1579 4.98198 15.1148 4.95143 15.0628C3.65755 12.8584 0.20968 8.16699 0.174996 8.11984C0.125733 8.05288 0.102212 7.97043 0.108733 7.88756C0.115254 7.80468 0.151381 7.72693 0.210511 7.66849L1.27036 6.62121C1.32794 6.56431 1.40365 6.52939 1.4843 6.52252C1.56496 6.51565 1.64548 6.53727 1.71185 6.58361L5.17778 9.00378C7.48206 6.04361 9.62344 4.00072 11.0309 2.797C12.6085 1.44759 13.6115 0.841232 13.6534 0.815963C13.7072 0.783667 13.7688 0.766605 13.8316 0.766602H15.5461C15.6163 0.76659 15.6848 0.78791 15.7426 0.827733C15.8004 0.867557 15.8447 0.924003 15.8697 0.989589C15.8947 1.05517 15.8991 1.1268 15.8824 1.19497C15.8658 1.26314 15.8288 1.32463 15.7764 1.3713C13.2345 3.63514 10.5918 7.23213 8.82254 9.85089C6.89921 12.6975 5.56402 15.0355 5.55077 15.0588C5.52071 15.1116 5.4773 15.1555 5.42491 15.1862C5.37251 15.2169 5.31296 15.2333 5.25224 15.2337L5.24996 15.2337Z" fill="#463998"/>
</svg>
