<svg width="21" height="21" viewBox="0 0 21 21" fill="none" xmlns="http://www.w3.org/2000/svg">
<g clip-path="url(#clip0_108_502)">
<path d="M18.6611 1.76667C18.5138 1.61951 18.2751 1.61938 18.1278 1.76667L14.2178 5.67652C14.165 5.72926 14.1291 5.79645 14.1146 5.8696C14.1 5.94276 14.1075 6.01859 14.136 6.0875C14.1645 6.15641 14.2129 6.21531 14.2749 6.25674C14.3369 6.29818 14.4099 6.32028 14.4844 6.32026C14.534 6.32033 14.583 6.31061 14.6288 6.29166C14.6746 6.27271 14.7161 6.24491 14.7511 6.20985L18.6611 2.3C18.8084 2.15267 18.8084 1.91392 18.6611 1.76667ZM19.7244 2.81318C19.6537 2.74249 19.5577 2.70279 19.4577 2.70279C19.3577 2.70279 19.2618 2.74249 19.1911 2.81318L15.2811 6.72312C15.2104 6.79385 15.1707 6.88977 15.1707 6.98978C15.1707 7.08979 15.2104 7.1857 15.2811 7.25645C15.3161 7.2915 15.3577 7.31931 15.4034 7.33825C15.4492 7.3572 15.4982 7.36692 15.5478 7.36686C15.5973 7.36692 15.6464 7.3572 15.6921 7.33825C15.7379 7.31931 15.7795 7.2915 15.8145 7.25645L19.7244 3.34647C19.7594 3.31145 19.7872 3.26988 19.8061 3.22413C19.8251 3.17838 19.8349 3.12935 19.8349 3.07983C19.8349 3.0303 19.8251 2.98127 19.8061 2.93552C19.7872 2.88977 19.7594 2.8482 19.7244 2.81318Z" fill="black"/>
<path d="M16.0358 9.41542L20.8895 4.56171C20.9246 4.5267 20.9523 4.48512 20.9713 4.43937C20.9902 4.39362 21 4.34458 21 4.29505C21 4.24553 20.9902 4.19649 20.9713 4.15073C20.9523 4.10498 20.9246 4.06341 20.8895 4.02839C20.7422 3.88122 20.5035 3.8811 20.3562 4.02839L15.5026 8.88209C14.9046 9.48002 13.9903 9.63691 13.2274 9.2726C13.1536 9.23733 13.0703 9.22703 12.9901 9.24326C12.9099 9.25948 12.8372 9.30135 12.7829 9.36255L11.1337 11.2207C11.133 11.2214 11.1323 11.222 11.1316 11.2227C11.131 11.2235 11.1305 11.2243 11.1298 11.225L4.00176 19.2557L3.99639 19.262C3.97467 19.2876 3.95192 19.3125 3.92822 19.3363C3.45757 19.8069 2.69181 19.8069 2.22136 19.3363C1.99339 19.1084 1.86784 18.8053 1.86784 18.4829C1.86784 18.1605 1.99339 17.8574 2.22177 17.629C2.24546 17.6054 2.27014 17.5827 2.29572 17.5612C2.29785 17.5594 2.2999 17.5576 2.30195 17.5558L6.75822 13.6005C6.83301 13.5341 6.87837 13.4407 6.88432 13.3409C6.89026 13.2411 6.85631 13.1429 6.78992 13.0681C6.65166 12.9123 6.41328 12.8981 6.25758 13.0364L1.80427 16.9891C1.76412 17.0232 1.72535 17.0589 1.68807 17.0961C1.31766 17.4665 1.11365 17.959 1.11365 18.4829C1.11365 19.0067 1.31762 19.4992 1.68803 19.8696C2.07042 20.2519 2.57257 20.4431 3.07485 20.443C3.57692 20.443 4.0792 20.252 4.4613 19.8698C4.49861 19.8324 4.53441 19.7936 4.5686 19.7534L10.0004 13.6336L15.4322 19.7535C15.4663 19.7936 15.502 19.8324 15.5393 19.8697C15.9216 20.252 16.4238 20.4431 16.9259 20.4431C17.4282 20.4431 17.9304 20.252 18.3128 19.8696C19.0773 19.105 19.0773 17.8609 18.313 17.0965C18.2756 17.0592 18.2368 17.0234 18.1966 16.9892L11.9462 11.4414L13.169 10.0636C14.1599 10.4147 15.281 10.1701 16.0358 9.41542ZM17.6988 17.5558L17.705 17.5612C17.7307 17.5829 17.7555 17.6057 17.7794 17.6294C18.25 18.1 18.25 18.8657 17.7794 19.3362C17.3088 19.8068 16.5431 19.8068 16.0723 19.336C16.0467 19.3103 16.0222 19.2835 15.9989 19.2556L10.5045 13.0655L11.4454 12.0054L17.6988 17.5558Z" fill="black"/>
<path d="M17.5292 0.668013C17.4585 0.597325 17.3626 0.557617 17.2626 0.557617C17.1625 0.557617 17.0666 0.597325 16.9959 0.668013L12.1423 5.52176C11.3873 6.27661 11.1429 7.39761 11.4939 8.38863L10.0003 9.71434L8.56488 8.44023C9.30722 6.97958 9.03623 5.2061 7.85851 4.02834C6.68882 2.85866 5.334 2.03552 4.0436 1.71063C2.69653 1.37155 1.54161 1.59792 0.791269 2.34822C0.0409293 3.09852 -0.185477 4.2536 0.153681 5.60059C0.478607 6.8909 1.30171 8.24573 2.47147 9.41537C3.6492 10.5932 5.42263 10.8642 6.88336 10.1218L8.30492 11.7234C8.34028 11.7633 8.38373 11.7952 8.43238 11.8171C8.48103 11.8389 8.53378 11.8502 8.58711 11.8501C8.67935 11.8502 8.76841 11.8164 8.8373 11.755L12.1951 8.77467C12.2563 8.72035 12.2981 8.64761 12.3144 8.56742C12.3306 8.48722 12.3203 8.40393 12.285 8.3301C11.9207 7.56717 12.0776 6.65293 12.6755 6.05505L17.5292 1.20134C17.5642 1.16632 17.592 1.12475 17.611 1.079C17.6299 1.03324 17.6397 0.984201 17.6397 0.934676C17.6397 0.885152 17.6299 0.836112 17.611 0.790358C17.592 0.744603 17.5642 0.703031 17.5292 0.668013ZM8.61865 10.9407L7.24594 9.39421C7.18704 9.32784 7.10662 9.28436 7.01883 9.27144C6.93103 9.25852 6.8415 9.27699 6.76597 9.32358C5.55692 10.0691 4.01022 9.88771 3.00468 8.88213C1.9299 7.8074 1.17714 6.57664 0.88499 5.41643C0.613261 4.33702 0.769367 3.43673 1.3246 2.88154C1.87974 2.32628 2.78003 2.17025 3.8594 2.44202C5.01961 2.73413 6.25045 3.48685 7.32514 4.56163C8.33068 5.56712 8.51213 7.11382 7.76655 8.32288C7.71999 8.39841 7.70154 8.48794 7.71446 8.57573C7.72738 8.66351 7.77083 8.74393 7.83718 8.80285L9.43219 10.2185L8.61865 10.9407Z" fill="black"/>
</g>
<defs>
<clipPath id="clip0_108_502">
<rect width="21" height="21" fill="white"/>
</clipPath>
</defs>
</svg>
