<svg width="22" height="22" viewBox="0 0 22 22" fill="none" xmlns="http://www.w3.org/2000/svg">
<path d="M10.0259 20.0929C12.4755 20.0929 14.7906 19.2199 16.617 17.6219L20.8307 21.7613C20.9591 21.8878 21.1322 21.9586 21.3125 21.9583C21.4038 21.9585 21.4942 21.9403 21.5785 21.905C21.6627 21.8697 21.739 21.8179 21.8029 21.7526C22.069 21.4817 22.0652 21.0465 21.7943 20.7804L17.5887 16.6491C19.1818 14.8241 20.0519 12.5125 20.0519 10.067C20.0519 7.38893 19.009 4.87122 17.1154 2.97754C15.2217 1.08391 12.704 0.0410156 10.0259 0.0410156C7.34796 0.0410156 4.8302 1.08391 2.93657 2.97754C1.04289 4.87122 0 7.38893 0 10.067C0 12.745 1.04289 15.2627 2.93657 17.1564C4.8302 19.05 7.34796 20.0929 10.0259 20.0929ZM3.90882 3.9498C5.59535 2.26327 7.81069 1.42005 10.0259 1.42005C12.2413 1.42005 14.4566 2.26332 16.1431 3.9498C19.5161 7.3228 19.5161 12.8111 16.1431 16.1841C12.7701 19.5571 7.28191 19.5572 3.90878 16.1841C0.53582 12.8111 0.53582 7.3228 3.90882 3.9498Z" fill="#585858"/>
</svg>
