<svg width="32" height="32" viewBox="0 0 32 32" fill="none" xmlns="http://www.w3.org/2000/svg">
<path d="M32 16C32 7.16344 24.8366 0 16 0C7.16344 0 0 7.16344 0 16C0 24.8366 7.16344 32 16 32C24.8366 32 32 24.8366 32 16Z" fill="#0077FF"/>
<path d="M17.024 23.0502C9.72801 23.0502 5.56801 18.0582 5.39734 9.73821H9.06667C9.18401 15.8395 11.872 18.4209 14.0053 18.9542V9.73821H17.4507V14.9969C19.552 14.7729 21.7707 12.3729 22.5173 9.72754H25.952C25.672 11.0969 25.1125 12.3938 24.3087 13.5372C23.5048 14.6806 22.4738 15.6459 21.28 16.3729C22.6122 17.0359 23.7887 17.9739 24.7319 19.1249C25.6751 20.2758 26.3636 21.6137 26.752 23.0502H22.9653C22.1547 20.5222 20.128 18.5595 17.4507 18.2929V23.0502H17.0347H17.024Z" fill="white"/>
</svg>
