<svg width="159" height="58" viewBox="0 0 159 58" fill="none" xmlns="http://www.w3.org/2000/svg">
<g clip-path="url(#clip0_63_5051)">
<path d="M117.359 14.3184H117.249V43.7658H117.359V14.3184Z" fill="#D0D0D0"/>
<mask id="mask0_63_5051" style="mask-type:luminance" maskUnits="userSpaceOnUse" x="124" y="13" width="21" height="28">
<path d="M127.441 16.4779C125.581 18.2166 124.637 20.4322 124.637 23.0684C124.637 25.256 125.276 27.3033 126.525 29.1824C127.608 30.7809 129.494 32.8282 132.354 35.4364L136.794 39.6432C137.599 40.2603 138.765 40.12 139.404 39.3909C140.098 38.6056 140.042 37.3996 139.293 36.6704C136.989 34.5671 137.35 34.8756 135.047 32.7722C132.659 30.6127 130.993 28.7898 130.077 27.3313C129.217 25.9852 128.772 24.583 128.772 23.1806C128.772 21.554 129.328 20.264 130.438 19.2263C131.604 18.1606 132.937 17.6558 134.575 17.6558C136.184 17.6558 137.655 18.0764 138.904 18.9178C139.682 19.4787 140.487 20.2359 141.319 21.2175C141.319 21.2175 141.319 21.2175 141.292 21.2175C141.514 21.526 141.902 22.115 142.069 22.9843C142.263 24.1061 141.93 25.0036 141.764 25.3401C142.402 25.3401 143.289 25.0316 144.011 24.2463C144.733 23.4331 145.649 20.4322 143.678 18.0764C143.178 17.4874 142.68 16.7864 141.125 15.7487C139.265 14.5147 136.961 13.8696 134.352 13.8696C131.632 13.8696 129.3 14.7671 127.441 16.4779Z" fill="white"/>
</mask>
<g mask="url(#mask0_63_5051)">
<path d="M145.677 13.8696H124.637V40.2321H145.677V13.8696Z" fill="url(#paint0_linear_63_5051)"/>
</g>
<mask id="mask1_63_5051" style="mask-type:luminance" maskUnits="userSpaceOnUse" x="124" y="13" width="21" height="13">
<path d="M127.441 16.4779C125.581 18.2166 124.637 20.4322 124.637 23.0684C124.637 24.022 124.748 24.9475 124.998 25.845C125.081 24.8634 125.359 23.1806 126.497 21.526C129.161 17.6838 134.047 17.6558 134.575 17.6558C136.184 17.6558 137.655 18.0764 138.904 18.9178C139.682 19.4787 140.487 20.2359 141.319 21.2175C141.319 21.2175 141.319 21.2175 141.292 21.2175C141.514 21.526 141.902 22.115 142.069 22.9843C142.263 24.1061 141.93 25.0036 141.764 25.3401C142.402 25.3401 143.289 25.0316 144.011 24.2463C144.733 23.4331 145.649 20.4322 143.678 18.0764C143.178 17.4874 142.68 16.7864 141.125 15.7487C139.265 14.5147 136.961 13.8696 134.352 13.8696C131.632 13.8696 129.3 14.7671 127.441 16.4779Z" fill="white"/>
</mask>
<g mask="url(#mask1_63_5051)">
<path d="M145.677 13.8696H124.637V25.845H145.677V13.8696Z" fill="url(#paint1_linear_63_5051)"/>
</g>
<mask id="mask2_63_5051" style="mask-type:luminance" maskUnits="userSpaceOnUse" x="138" y="13" width="21" height="32">
<path d="M149.229 13.8696C146.592 13.8696 144.316 14.4866 142.456 15.7487C141.929 16.1132 141.513 16.4218 141.179 16.7303C141.068 16.8144 140.957 16.9266 140.874 17.0107C140.458 17.4033 140.18 17.768 139.93 18.0764C137.96 20.4042 138.849 23.4331 139.597 24.2463C140.319 25.0316 141.207 25.3401 141.846 25.3401C141.707 25.0036 141.346 24.1061 141.54 22.9843C141.679 22.115 142.096 21.526 142.318 21.2175C143.123 20.2359 143.928 19.4506 144.733 18.9178C145.982 18.0764 147.452 17.6558 149.062 17.6558C150.673 17.6558 152.033 18.1606 153.199 19.2263C154.336 20.264 154.863 21.554 154.863 23.1806C154.863 24.5549 154.419 25.9572 153.56 27.3314C152.644 28.7616 150.978 30.5846 148.591 32.7722L140.596 40.8211C140.596 40.8211 140.596 40.8211 140.569 40.8492C140.235 41.1857 140.013 41.6625 140.013 42.1953C140.013 43.2611 140.874 44.1305 141.929 44.1305C142.429 44.1305 142.901 43.9342 143.234 43.5977L143.262 43.5695L143.289 43.5415L151.283 35.4645C154.142 32.8563 156.029 30.809 157.112 29.2104C158.361 27.3314 159 25.256 159 23.0965C159 20.4603 158.056 18.2447 156.196 16.5059C154.308 14.7671 151.977 13.8696 149.229 13.8696Z" fill="white"/>
</mask>
<g mask="url(#mask2_63_5051)">
<path d="M128.328 17.4314L140.403 50.9456L168.577 40.5688L156.501 7.05469L128.328 17.4314Z" fill="white"/>
</g>
<path d="M14.6002 14.3182C10.9085 14.3182 7.71647 15.5802 5.02403 17.9921C4.80198 18.1884 4.57992 18.3847 4.35786 18.609C1.47113 21.4417 0 24.9473 0 29.0138C0 33.0524 1.49888 36.53 4.30235 39.3907C6.24534 41.3537 8.46592 42.672 10.9918 43.3169C12.1299 43.5974 13.3234 43.7376 14.5725 43.7376C15.8215 43.7376 17.0429 43.5974 18.1809 43.3169C18.514 43.2328 18.8193 43.1487 19.1247 43.0365C19.2357 42.9804 19.3744 42.9524 19.4855 42.8963H19.5132C21.2342 42.2793 22.7886 41.3257 24.232 40.0076L28.7286 43.2889L29.145 43.5974V14.29L24.232 18.0201C21.5117 15.5802 18.2919 14.3182 14.6002 14.3182ZM20.79 35.296C19.4577 36.6422 17.9033 37.4555 16.1547 37.7359C15.6551 37.8201 15.1553 37.8761 14.6002 37.8761C12.1576 37.8761 10.1036 37.0629 8.38264 35.324C6.66171 33.5853 5.85675 31.4819 5.85675 29.042C5.85675 26.7982 6.52291 24.8632 7.96629 23.2084C8.10507 23.0402 8.2161 22.9 8.38264 22.7317C10.1036 20.9929 12.1576 20.1796 14.6002 20.1796C17.0151 20.1796 19.0691 21.0209 20.79 22.7598C22.511 24.4985 23.3437 26.5739 23.3437 29.0138C23.3437 31.4819 22.511 33.5571 20.79 35.296Z" fill="white"/>
<path d="M67.7278 43.0362C69.1434 43.5129 70.6423 43.7654 72.2245 43.7654C73.7789 43.7654 75.3055 43.5129 76.7489 43.0362C77.8036 42.6997 78.8029 42.2229 79.8021 41.6059C82.0504 40.2036 83.8269 38.3246 85.076 35.9688L85.6311 34.9311L80.5515 32.0424L79.9687 33.1642C79.2192 34.5945 78.1645 35.7724 76.7767 36.6138C75.3887 37.4552 73.8899 37.8758 72.2522 37.8758C70.8366 37.8758 69.5042 37.5954 68.2829 36.9224L80.8291 25.7323L85.076 21.9461L84.5486 21.0768C83.2718 19.0294 81.4675 17.4308 79.3858 16.2249C77.8591 15.3554 76.2214 14.7385 74.5006 14.5142C73.7789 14.3739 73.0294 14.3179 72.28 14.3179C71.8913 14.3179 71.5305 14.3459 71.1419 14.3459C67.6445 14.5983 64.5912 16.0286 62.0376 18.5807C59.1786 21.4413 57.7075 24.947 57.7075 29.0136C57.7075 31.3694 58.2349 33.5289 59.2064 35.492C59.9003 36.8942 60.8717 38.1844 62.0099 39.3623C63.6752 41.101 65.5905 42.335 67.7278 43.0362ZM63.592 27.6393C63.8418 25.7603 64.619 24.1336 66.0068 22.7314C66.2567 22.5071 66.4788 22.2547 66.7285 22.0583H66.7563C68.3107 20.7682 70.1427 20.1793 72.2245 20.1793C73.8898 20.1793 75.4165 20.5999 76.8043 21.4694L64.286 32.7155C63.7585 31.5376 63.5088 30.3317 63.5088 29.0136C63.5088 28.5368 63.5365 28.0881 63.592 27.6393Z" fill="white"/>
<path d="M49.1577 43.6814H54.9867V26.4055C54.9867 23.2644 53.9319 20.516 51.7113 18.3004C49.5185 16.0848 46.7984 15.0191 43.6618 15.0191C40.9138 15.0191 38.4712 15.8885 36.4172 17.6834L32.3647 14.374V43.7374H38.1937V26.4055C38.1937 24.8629 38.721 23.5729 39.7757 22.5071C40.8583 21.4135 42.1351 20.9086 43.634 20.9086C45.1607 20.9086 46.4374 21.4135 47.52 22.4791C48.6303 23.5729 49.1022 24.8911 49.1022 26.4335V43.6814H49.1577Z" fill="white"/>
<path d="M109.974 43.7374L100.536 26.9382L107.614 14.3179H100.73L97.0665 20.8243L93.4025 14.3179H86.4911L93.6524 26.9382L84.1317 43.7374H91.0433L97.0665 33.0521L103.062 43.7374H109.974Z" fill="white"/>
</g>
<defs>
<linearGradient id="paint0_linear_63_5051" x1="124.615" y1="27.0701" x2="144.857" y2="27.0701" gradientUnits="userSpaceOnUse">
<stop stop-color="#E0E0E0"/>
<stop offset="0.45" stop-color="#F0F0F0"/>
<stop offset="1" stop-color="white"/>
</linearGradient>
<linearGradient id="paint1_linear_63_5051" x1="124.615" y1="19.8902" x2="144.857" y2="19.8902" gradientUnits="userSpaceOnUse">
<stop stop-color="#E7E7E7"/>
<stop offset="0.55" stop-color="#F3F3F3"/>
<stop offset="1" stop-color="white"/>
</linearGradient>
<clipPath id="clip0_63_5051">
<rect width="159" height="58" fill="white"/>
</clipPath>
</defs>
</svg>
