<svg width="26" height="26" viewBox="0 0 26 26" fill="none" xmlns="http://www.w3.org/2000/svg">
<path d="M13 0C5.82864 0 0 5.82864 0 13C0 20.1714 5.82864 26 13 26C20.1714 26 26 20.1714 26 13C26 5.82864 20.1714 0 13 0ZM13 24.6878C6.56103 24.6878 1.31221 19.439 1.31221 13C1.31221 6.56103 6.56103 1.31221 13 1.31221C19.439 1.31221 24.6878 6.56103 24.6878 13C24.6878 19.439 19.439 24.6878 13 24.6878Z" fill="#D4D4D4"/>
<path d="M13.9126 12.939L17.7272 9.12441C17.9713 8.88028 17.9713 8.45305 17.7272 8.20892C17.483 7.96479 17.0558 7.96479 16.8117 8.20892L12.9971 12.0235L9.18258 8.20892C8.93844 7.96479 8.51121 7.96479 8.26708 8.20892C8.02295 8.45305 8.02295 8.88028 8.26708 9.12441L12.0816 12.939L8.26708 16.723C8.02295 16.9671 8.02295 17.3944 8.26708 17.6385C8.38915 17.7606 8.57225 17.8216 8.72483 17.8216C8.87741 17.8216 9.06051 17.7606 9.18258 17.6385L12.9971 13.8239L16.8117 17.6385C16.9338 17.7606 17.1168 17.8216 17.2694 17.8216C17.422 17.8216 17.6051 17.7606 17.7272 17.6385C17.9713 17.3944 17.9713 16.9671 17.7272 16.723L13.9126 12.939Z" fill="#D4D4D4"/>
</svg>
