<svg width="26" height="26" viewBox="0 0 26 26" fill="none" xmlns="http://www.w3.org/2000/svg">
<path d="M13 0C5.82864 0 0 5.82864 0 13C0 20.1714 5.82864 26 13 26C20.1714 26 26 20.1714 26 13C26 5.82864 20.1714 0 13 0ZM13 24.6878C6.56103 24.6878 1.31221 19.439 1.31221 13C1.31221 6.56103 6.56103 1.31221 13 1.31221C19.439 1.31221 24.6878 6.56103 24.6878 13C24.6878 19.439 19.439 24.6878 13 24.6878Z" fill="#585858"/>
<path d="M13.9156 12.9385L17.7301 9.12398C17.9742 8.87985 17.9742 8.45262 17.7301 8.20849C17.486 7.96436 17.0587 7.96436 16.8146 8.20849L13.0001 12.023L9.18551 8.20849C8.94137 7.96436 8.51414 7.96436 8.27001 8.20849C8.02588 8.45262 8.02588 8.87985 8.27001 9.12398L12.0846 12.9385L8.27001 16.7226C8.02588 16.9667 8.02588 17.3939 8.27001 17.6381C8.39208 17.7601 8.57518 17.8212 8.72776 17.8212C8.88034 17.8212 9.06344 17.7601 9.18551 17.6381L13.0001 13.8235L16.8146 17.6381C16.9367 17.7601 17.1198 17.8212 17.2724 17.8212C17.4249 17.8212 17.608 17.7601 17.7301 17.6381C17.9742 17.3939 17.9742 16.9667 17.7301 16.7226L13.9156 12.9385Z" fill="#585858"/>
</svg>
