<svg width="26" height="26" viewBox="0 0 26 26" fill="none" xmlns="http://www.w3.org/2000/svg">
<rect width="26" height="26" rx="13" fill="#463998"/>
<path d="M10.1423 20.4671C10.082 20.4671 10.0227 20.4513 9.97029 20.4213C9.91793 20.3913 9.87431 20.3482 9.84377 20.2962C8.54988 18.0918 5.10201 13.4004 5.06733 13.3532C5.01807 13.2863 4.99455 13.2038 5.00107 13.121C5.00759 13.0381 5.04372 12.9603 5.10285 12.9019L6.1627 11.8546C6.22028 11.7977 6.29598 11.7628 6.37664 11.7559C6.4573 11.749 6.53781 11.7707 6.60418 11.817L10.0701 14.2372C12.3744 11.277 14.5158 9.23412 15.9232 8.0304C17.5008 6.68099 18.5038 6.07463 18.5458 6.04936C18.5996 6.01707 18.6611 6 18.7239 6H20.4385C20.5086 5.99999 20.5772 6.02131 20.635 6.06113C20.6927 6.10096 20.7371 6.1574 20.762 6.22299C20.787 6.28857 20.7914 6.3602 20.7748 6.42837C20.7581 6.49654 20.7211 6.55803 20.6687 6.6047C18.1269 8.86854 15.4842 12.4655 13.7149 15.0843C11.7915 17.9309 10.4564 20.2689 10.4431 20.2922C10.413 20.345 10.3696 20.3889 10.3172 20.4196C10.2648 20.4503 10.2053 20.4667 10.1446 20.467L10.1423 20.4671Z" fill="white"/>
</svg>
